<?xml version="1.0" encoding="UTF-8"?><svg id="Layer_2" xmlns="http://www.w3.org/2000/svg" width="35.28mm" height="23.11mm" viewBox="0 0 100 65.5"><defs><style>.cls-1,.cls-2{fill:#4f64ae;}.cls-2{stroke:#4f64ae;stroke-miterlimit:10;}</style></defs><g id="Layer_1-2"><line class="cls-2" y1="65" x2="100" y2="65"/><path class="cls-1" d="m49.93,1.99C40.05.03,32.66-1,24.95,2.37c-7.83,3.42-14.13,11.69-13.6,20.59.35,5.85,3.61,11.32,8.21,14.64s10.41,4.56,15.96,3.92c5.6-.64,10.85-3.07,16.27-4.66,5.42-1.59,11.48-2.28,16.49.42,1.47.79,2.81,1.85,4.36,2.44,1.77.68,3.69.69,5.58.71,3.81.02,8.24-.27,10.44-3.54,3.22-4.78-.98-11.39-.04-17.16.62-3.79,3.47-7.05,3.32-10.89-.14-3.55-2.93-6.5-6.09-7.75-3.16-1.25-6.64-1.16-10.02-1.01-1.17.05-1.77.08-2.37.26-3.04.96-3.53,3.76-6.46,5.09-.76.35-1.94.71-3.61.59-3.03-1.23-7.66-2.88-13.46-4.03Z"/></g></svg>