<?xml version="1.0" encoding="UTF-8"?><svg id="Layer_2" xmlns="http://www.w3.org/2000/svg" width="35.28mm" height="23.11mm" viewBox="0 0 100 65.5"><defs><style>.cls-1{fill:#4f64ae;}.cls-1,.cls-2{stroke:#4f64ae;stroke-miterlimit:10;}.cls-2{fill:none;stroke-width:4px;}</style></defs><g id="Layer_1-2"><line class="cls-1" y1="65" x2="100" y2="65"/><path class="cls-2" d="m93.47,3.8c-1.73,1.41-4.31,3.53-7.4,6.18-5.51,4.74-9.39,8.12-10.47,9.39-8.22,9.63-21.54,16.86-33.66,17.98-3.89.36-10.41.87-18.11-3.03-9.42-4.78-15.14-13.41-17.72-17.9"/><path class="cls-2" d="m5.91,18.48C9.86,14.25,22.53,1.81,40.66,2c16.83.18,29.11,11.14,32.93,15.17.88.93,3.87,4.19,7.4,8.37,4.16,4.91,7.44,9.13,9.58,11.97"/></g></svg>