<?xml version="1.0" encoding="UTF-8"?><svg id="Layer_2" xmlns="http://www.w3.org/2000/svg" width="64.91mm" height="130.24mm" xmlns:xlink="http://www.w3.org/1999/xlink" viewBox="0 0 184 369.18"><defs><style>.cls-1{clip-path:url(#clippath);}.cls-2{letter-spacing:-.02em;}.cls-3{letter-spacing:0em;}.cls-4{fill:#f9c8dd;}.cls-5,.cls-6,.cls-7{fill:#444454;}.cls-8{letter-spacing:0em;}.cls-9{letter-spacing:0em;}.cls-6{font-size:9.33px;}.cls-6,.cls-7{font-family:Montserrat-Light, Montserrat;font-weight:300;}.cls-10{letter-spacing:-.02em;}.cls-11{letter-spacing:-.02em;}.cls-12{clip-path:url(#clippath-1);}.cls-13{clip-path:url(#clippath-3);}.cls-14{clip-path:url(#clippath-2);}.cls-15{letter-spacing:-.02em;}.cls-16{letter-spacing:-.02em;}.cls-17{letter-spacing:-.06em;}.cls-18{letter-spacing:0em;}.cls-19{letter-spacing:-.01em;}.cls-20{letter-spacing:-.02em;}.cls-21{letter-spacing:-.02em;}.cls-22,.cls-23,.cls-24{isolation:isolate;}.cls-25{letter-spacing:0em;}.cls-23{fill:#fef2f7;}.cls-24,.cls-26{fill:none;stroke:#444454;stroke-miterlimit:10;stroke-width:.5px;}.cls-27{letter-spacing:0em;}.cls-7{font-size:18.66px;}.cls-28{letter-spacing:0em;}.cls-29{letter-spacing:-.03em;}</style><clipPath id="clippath"><path class="cls-4" d="m45.3,62.18l-14.45-18.31c-1.66,1.32-5.8,4.98-7.81,11.33-.67,2.11-1.81,6.79-.46,12.42,2.34,9.72,10.26,14.32,11.32,14.91,7.52,4.21,14.85,2.78,16.64,2.38,1.45-.34,9.92-2.46,14.89-10.94,5.17-8.84,2.48-17.66,2.04-19.02-.64-1.95-2.82-7.69-8.82-11.89-5.24-3.66-10.52-4.12-12.65-4.19-.24,7.77-.47,15.54-.71,23.31Z"/></clipPath><clipPath id="clippath-1"><path class="cls-4" d="m139.69,63.97l-20.65-10.84c-.98,1.88-3.27,6.91-2.52,13.52.25,2.2,1.11,6.94,4.64,11.53,6.1,7.93,15.2,8.9,16.41,9.01,8.59.78,14.69-3.51,16.17-4.6,1.18-.9,8.06-6.29,9.14-16.06,1.13-10.18-4.92-17.14-5.88-18.2-.83-.92-5.38-5.8-12.9-7.26-2.07-.4-3.85-.45-5.12-.4.24,7.77.48,15.54.72,23.31Z"/></clipPath><clipPath id="clippath-2"><path class="cls-4" d="m45.31,153.51l-9.08,21.48c1.95.82,7.16,2.68,13.69,1.38,2.17-.43,6.82-1.68,11.1-5.58,7.39-6.74,7.6-15.89,7.61-17.1.01-1.74-.13-9.25-5.93-15.73-6.53-7.29-15.23-7.72-16.76-7.77-.21,7.77-.42,15.54-.62,23.31Z"/></clipPath><clipPath id="clippath-3"><path class="cls-4" d="m140.85,155.15l-23.32-.24c-.01,2.12.23,7.64,3.92,13.18,1.22,1.84,4.15,5.67,9.38,8.15,9.04,4.28,17.58,1,18.71.55,8-3.22,11.48-9.81,12.29-11.46.65-1.34,4.31-9.27.82-18.46-.32-.83-3.89-9.81-13.52-13.52-3.26-1.26-6.21-1.52-8.19-1.54-.03,7.78-.06,15.56-.09,23.34Z"/></clipPath></defs><g id="Layer_2-2"><text class="cls-7" transform="translate(23.45 15.86)"><tspan class="cls-11" x="0" y="0">K</tspan><tspan x="12.67" y="0">ompe</tspan><tspan class="cls-15" x="67.82" y="0">t</tspan><tspan x="74.89" y="0">e</tspan><tspan class="cls-9" x="86.03" y="0">n</tspan><tspan class="cls-8" x="98.6" y="0">c</tspan><tspan x="108.79" y="0">er</tspan></text><text class="cls-6" transform="translate(0 268.62)"><tspan class="cls-28" x="0" y="0">A</tspan><tspan x="6.53" y="0">dobe Illust</tspan><tspan class="cls-3" x="54.91" y="0">r</tspan><tspan x="58.5" y="0">a</tspan><tspan class="cls-16" x="63.94" y="0">t</tspan><tspan x="67.47" y="0">or</tspan></text><text class="cls-6" transform="translate(0 325.64)"><tspan class="cls-28" x="0" y="0">A</tspan><tspan x="6.53" y="0">dobe P</tspan><tspan class="cls-27" x="39.54" y="0">h</tspan><tspan x="45.83" y="0">o</tspan><tspan class="cls-16" x="51.61" y="0">t</tspan><tspan x="55.15" y="0">os</tspan><tspan class="cls-27" x="65.39" y="0">h</tspan><tspan x="71.68" y="0">op</tspan></text><text class="cls-6" transform="translate(0 306.36)"><tspan class="cls-28" x="0" y="0">A</tspan><tspan x="6.53" y="0">dobe </tspan><tspan class="cls-10" x="32.87" y="0">X</tspan><tspan x="38.64" y="0">D</tspan></text><text class="cls-6" transform="translate(0 287.39)"><tspan class="cls-28" x="0" y="0">A</tspan><tspan x="6.53" y="0">dobe </tspan><tspan class="cls-29" x="32.87" y="0">P</tspan><tspan class="cls-19" x="39.3" y="0">r</tspan><tspan x="42.85" y="0">emie</tspan><tspan class="cls-19" x="66.34" y="0">r</tspan><tspan x="69.89" y="0">e </tspan><tspan class="cls-29" x="77.86" y="0">P</tspan><tspan class="cls-19" x="84.28" y="0">r</tspan><tspan x="87.83" y="0">o</tspan></text><text class="cls-6" transform="translate(0 345.73)"><tspan x="0" y="0">HTML + </tspan><tspan class="cls-18" x="37.32" y="0">C</tspan><tspan x="43.96" y="0">SS</tspan></text><text class="cls-6" transform="translate(0 366.75)"><tspan x="0" y="0">J</tspan><tspan class="cls-25" x="4.58" y="0">a</tspan><tspan class="cls-20" x="9.93" y="0">v</tspan><tspan x="14.7" y="0">aSc</tspan><tspan class="cls-3" x="31" y="0">r</tspan><tspan x="34.59" y="0">ipt</tspan></text><circle class="cls-5" cx="108.71" cy="266.5" r="3.73"/><circle class="cls-5" cx="155.91" cy="266.5" r="3.73"/><circle class="cls-5" cx="143.75" cy="266.5" r="3.73"/><circle class="cls-5" cx="132.19" cy="266.5" r="3.73"/><circle class="cls-5" cx="120.58" cy="266.5" r="3.73"/><circle class="cls-5" cx="108.59" cy="285.28" r="3.73"/><circle class="cls-24" cx="155.79" cy="285.28" r="3.73"/><circle class="cls-24" cx="143.63" cy="285.28" r="3.73"/><circle class="cls-5" cx="132.07" cy="285.28" r="3.73"/><circle class="cls-5" cx="120.46" cy="285.28" r="3.73"/><circle class="cls-5" cx="109.24" cy="304.05" r="3.73"/><circle class="cls-5" cx="156.44" cy="304.05" r="3.73"/><circle class="cls-5" cx="144.27" cy="304.05" r="3.73"/><circle class="cls-5" cx="132.72" cy="304.05" r="3.73"/><circle class="cls-5" cx="121.11" cy="304.05" r="3.73"/><circle class="cls-5" cx="109.24" cy="323.52" r="3.73"/><circle class="cls-24" cx="156.44" cy="323.52" r="3.73"/><circle class="cls-24" cx="144.27" cy="323.52" r="3.73"/><circle class="cls-24" cx="132.72" cy="323.52" r="3.73"/><circle class="cls-5" cx="121.11" cy="323.52" r="3.73"/><circle class="cls-5" cx="109.24" cy="344.42" r="3.73"/><circle class="cls-5" cx="156.44" cy="344.42" r="3.73"/><circle class="cls-5" cx="144.27" cy="344.42" r="3.73"/><circle class="cls-5" cx="132.72" cy="344.42" r="3.73"/><circle class="cls-5" cx="121.11" cy="344.42" r="3.73"/><circle class="cls-5" cx="109.24" cy="364.64" r="3.73"/><circle class="cls-24" cx="156.44" cy="364.64" r="3.73"/><circle class="cls-24" cx="144.27" cy="364.64" r="3.73"/><circle class="cls-24" cx="132.72" cy="364.64" r="3.73"/><circle class="cls-5" cx="121.11" cy="364.64" r="3.73"/><circle class="cls-5" cx="167.89" cy="266.5" r="3.73"/><circle class="cls-24" cx="167.78" cy="285.28" r="3.73"/><circle class="cls-24" cx="168.42" cy="304.05" r="3.73"/><circle class="cls-24" cx="168.42" cy="323.52" r="3.73"/><circle class="cls-24" cx="168.42" cy="344.42" r="3.73"/><circle class="cls-24" cx="168.42" cy="364.64" r="3.73"/><circle class="cls-24" cx="179.49" cy="266.5" r="3.73"/><circle class="cls-24" cx="179.38" cy="285.28" r="3.73"/><circle class="cls-24" cx="180.02" cy="304.05" r="3.73"/><circle class="cls-24" cx="180.02" cy="323.52" r="3.73"/><circle class="cls-24" cx="180.02" cy="344.42" r="3.73"/><circle class="cls-24" cx="180.02" cy="364.64" r="3.73"/><circle class="cls-23" cx="45.3" cy="62.16" r="23.32"/><text class="cls-6" transform="translate(112.32 98.85)"><tspan class="cls-17" x="0" y="0">W</tspan><tspan x="9.73" y="0">eb Design</tspan></text><text class="cls-6" transform="translate(9.68 189.23)"><tspan x="0" y="0">Bruge</tspan><tspan class="cls-19" x="28.86" y="0">r</tspan><tspan x="32.41" y="0">opl</tspan><tspan class="cls-25" x="46.92" y="0">e</tspan><tspan class="cls-21" x="52.4" y="0">v</tspan><tspan x="57.18" y="0">elser</tspan></text><text class="cls-6" transform="translate(9.64 96.8)"><tspan x="0" y="0">Illust</tspan><tspan class="cls-3" x="22.03" y="0">r</tspan><tspan x="25.62" y="0">atio</tspan><tspan class="cls-27" x="42.99" y="0">n</tspan><tspan x="49.28" y="0">er / </tspan><tspan x="0" y="11.19">G</tspan><tspan class="cls-3" x="7.21" y="11.19">r</tspan><tspan x="10.8" y="11.19">afisk design</tspan></text><text class="cls-6" transform="translate(117.78 189.95)"><tspan x="0" y="0">Res</tspan><tspan class="cls-21" x="16.74" y="0">e</tspan><tspan x="22.17" y="0">a</tspan><tspan class="cls-19" x="27.61" y="0">r</tspan><tspan class="cls-3" x="31.16" y="0">c</tspan><tspan x="36.25" y="0">h </tspan><tspan x="0" y="11.19">&amp; S</tspan><tspan class="cls-2" x="14.19" y="11.19">k</tspan><tspan x="19.48" y="11.19">e</tspan><tspan class="cls-16" x="25.05" y="11.19">t</tspan><tspan class="cls-3" x="28.58" y="11.19">c</tspan><tspan x="33.68" y="11.19">hi</tspan><tspan class="cls-27" x="42.39" y="11.19">n</tspan><tspan x="48.68" y="11.19">g</tspan></text><g class="cls-22"><path class="cls-4" d="m45.3,62.18l-14.45-18.31c-1.66,1.32-5.8,4.98-7.81,11.33-.67,2.11-1.81,6.79-.46,12.42,2.34,9.72,10.26,14.32,11.32,14.91,7.52,4.21,14.85,2.78,16.64,2.38,1.45-.34,9.92-2.46,14.89-10.94,5.17-8.84,2.48-17.66,2.04-19.02-.64-1.95-2.82-7.69-8.82-11.89-5.24-3.66-10.52-4.12-12.65-4.19-.24,7.77-.47,15.54-.71,23.31Z"/><g class="cls-1"><circle class="cls-4" cx="45.3" cy="62.18" r="23.32"/></g></g><circle class="cls-23" cx="139.69" cy="63.9" r="23.32"/><g class="cls-22"><path class="cls-4" d="m139.69,63.97l-20.65-10.84c-.98,1.88-3.27,6.91-2.52,13.52.25,2.2,1.11,6.94,4.64,11.53,6.1,7.93,15.2,8.9,16.41,9.01,8.59.78,14.69-3.51,16.17-4.6,1.18-.9,8.06-6.29,9.14-16.06,1.13-10.18-4.92-17.14-5.88-18.2-.83-.92-5.38-5.8-12.9-7.26-2.07-.4-3.85-.45-5.12-.4.24,7.77.48,15.54.72,23.31Z"/><g class="cls-12"><circle class="cls-4" cx="139.69" cy="63.97" r="23.32"/></g></g><circle class="cls-23" cx="45.3" cy="153.51" r="23.32"/><g class="cls-22"><path class="cls-4" d="m45.31,153.51l-9.08,21.48c1.95.82,7.16,2.68,13.69,1.38,2.17-.43,6.82-1.68,11.1-5.58,7.39-6.74,7.6-15.89,7.61-17.1.01-1.74-.13-9.25-5.93-15.73-6.53-7.29-15.23-7.72-16.76-7.77-.21,7.77-.42,15.54-.62,23.31Z"/><g class="cls-14"><circle class="cls-4" cx="45.31" cy="153.51" r="23.32"/></g></g><circle class="cls-23" cx="140.84" cy="155.11" r="23.32"/><g class="cls-22"><path class="cls-4" d="m140.85,155.15l-23.32-.24c-.01,2.12.23,7.64,3.92,13.18,1.22,1.84,4.15,5.67,9.38,8.15,9.04,4.28,17.58,1,18.71.55,8-3.22,11.48-9.81,12.29-11.46.65-1.34,4.31-9.27.82-18.46-.32-.83-3.89-9.81-13.52-13.52-3.26-1.26-6.21-1.52-8.19-1.54-.03,7.78-.06,15.56-.09,23.34Z"/><g class="cls-13"><circle class="cls-4" cx="140.85" cy="155.15" r="23.32"/></g></g><line class="cls-26" x1="0" y1="233.97" x2="183.75" y2="233.97"/></g></svg>