<?xml version="1.0" encoding="UTF-8"?><svg id="Layer_2" xmlns="http://www.w3.org/2000/svg" width="71.56mm" height="47.24mm" xmlns:xlink="http://www.w3.org/1999/xlink" viewBox="0 0 202.85 133.91"><defs><style>.cls-1,.cls-2{fill:none;}.cls-3{clip-path:url(#clippath);}.cls-4{letter-spacing:0em;}.cls-5{fill:#e893b9;}.cls-6{clip-path:url(#clippath-1);}.cls-7{clip-path:url(#clippath-4);}.cls-8{clip-path:url(#clippath-3);}.cls-9{clip-path:url(#clippath-2);}.cls-10{clip-path:url(#clippath-7);}.cls-11{clip-path:url(#clippath-8);}.cls-12{clip-path:url(#clippath-6);}.cls-13{clip-path:url(#clippath-5);}.cls-14{clip-path:url(#clippath-9);}.cls-15{letter-spacing:-.02em;}.cls-16{letter-spacing:-.01em;}.cls-17{fill:#3c3b49;font-family:Montserrat-Light, Montserrat;font-size:18.66px;font-weight:300;}.cls-2{stroke:#3c3b49;stroke-miterlimit:10;stroke-width:.5px;}</style><clipPath id="clippath"><rect class="cls-1" x=".19" y="58.65" width="28.57" height="28.57"/></clipPath><clipPath id="clippath-1"><rect class="cls-1" x="41.41" y="58.65" width="28.57" height="28.57"/></clipPath><clipPath id="clippath-2"><rect class="cls-1" x="82.41" y="58.65" width="28.57" height="28.57"/></clipPath><clipPath id="clippath-3"><rect class="cls-1" x="124.49" y="58.65" width="28.57" height="28.57"/></clipPath><clipPath id="clippath-4"><rect class="cls-1" x="165.64" y="58.65" width="28.57" height="28.57"/></clipPath><clipPath id="clippath-5"><rect class="cls-1" y="105.33" width="28.57" height="28.57"/></clipPath><clipPath id="clippath-6"><rect class="cls-1" x="43.88" y="104.51" width="28.57" height="28.57"/></clipPath><clipPath id="clippath-7"><rect class="cls-1" x="83.44" y="105.33" width="28.57" height="28.57"/></clipPath><clipPath id="clippath-8"><rect class="cls-1" x="124.6" y="105.33" width="28.57" height="28.57"/></clipPath><clipPath id="clippath-9"><rect class="cls-1" x="167.29" y="106.15" width="26.93" height="26.93"/></clipPath></defs><g id="Layer_2-2"><g class="cls-3"><path class="cls-5" d="m15.67,83.35h-.6v-7.16c1.23-.06,2.45-.24,3.65-.53.13-.03.22-.15.22-.29-.03-2.04-.42-3.74-1.39-4.73-1.01-1.03-.58-2.54.44-3.97.83-1.16.73-2.79.67-3.36-.01-.13-.11-.23-.23-.25l-1.7-.38c-.46-.1-.82-.47-.91-.93l-.11-.77c-.02-.15-.15-.26-.29-.26h-.27c.33-.37.3-.93-.06-1.26-.37-.33-.93-.3-1.26.06-.31.34-.31.86,0,1.2h-.27c-.15,0-.27.11-.29.26l-.11.77c-.09.46-.45.83-.91.93l-1.7.38c-.12.03-.22.13-.23.25-.07.57-.16,2.2.67,3.36,1.02,1.43,1.45,2.94.44,3.97-.98,1-1.37,2.69-1.39,4.73,0,.13.09.25.22.29,1.2.29,2.42.46,3.65.52v7.16h-.6c-1.81,0-3.27,1.47-3.27,3.27h1.19c0-1.15.93-2.08,2.08-2.08h.6v2.08h1.19v-2.08h.6c1.15,0,2.08.93,2.08,2.08h1.19c0-1.81-1.47-3.27-3.27-3.27Z"/></g><g class="cls-6"><path class="cls-5" d="m67.63,61.45c-.63-.63-1.34-.45-1.61-.18l-12.02,11.13-2.68,3.3c-.18.33,0,.89.42,1.31l.27.27c.42.42.98.63,1.31.42l3.3-2.68,11.19-12.02c.3-.33.42-.92-.18-1.55Z"/><path class="cls-5" d="m46.26,78.2c-.92.95-.65,2.08-.8,3.18-.18,1.9-1.7,2.53-2.11,2.68,2.44,1.82,5.68.48,7.47-1.31,1.25-1.25,1.25-3.3,0-4.55-1.25-1.25-3.3-1.25-4.55,0Z"/></g><g class="cls-9"><path class="cls-5" d="m107.41,66.09h-5.95l-1.79-2.98h-5.95l-1.79,2.98h-5.95c-.65,0-1.19.54-1.19,1.19v14.29c0,.65.54,1.19,1.19,1.19h21.43c.65,0,1.19-.54,1.19-1.19v-14.29c0-.65-.54-1.19-1.19-1.19Zm-16.67,4.76h-3.57v-2.38h3.57v2.38Zm5.95,9.52c-2.98,0-5.36-2.38-5.36-5.36s2.38-5.36,5.36-5.36,5.36,2.38,5.36,5.36-2.38,5.36-5.36,5.36Z"/><path class="cls-5" d="m96.69,79.18c-2.32,0-4.17-1.85-4.17-4.17s1.85-4.17,4.17-4.17,4.17,1.85,4.17,4.17-1.85,4.17-4.17,4.17Zm0-7.14c-1.67,0-2.98,1.31-2.98,2.98s1.31,2.98,2.98,2.98,2.98-1.31,2.98-2.98-1.31-2.98-2.98-2.98Z"/></g><g class="cls-8"><path class="cls-5" d="m148.9,78.29v-2.68l-8.63-6.1v-5.8c0-1.16-.6-2.68-1.49-2.68s-1.49,1.52-1.49,2.68v5.8l-8.63,6.1v2.68l8.63-4.32v6.49l-2.98,2.59v1.79l4.46-1.79,4.46,1.79v-1.79l-2.98-2.59v-6.49l8.63,4.32Z"/></g><g class="cls-7"><path class="cls-5" d="m174.72,77.1l1.31,7.35c.09.57.6.98,1.16.98h6.34c.57,0,1.07-.42,1.16-.98l1.34-7.35h-11.31Z"/><circle class="cls-5" cx="173.98" cy="67.28" r=".89"/><path class="cls-5" d="m186.03,73.53h-4.41c.24-1.55,1.13-3.21,2.44-4.64.21-.24.21-.63-.03-.83-.24-.21-.63-.21-.83.03-.77.83-2.44,2.92-2.77,5.48h-1.99c-.24-.95-.63-1.52-1.79-2.8-.21-.24-.6-.27-.83-.03-.24.21-.27.6-.03.83.89.98,1.25,1.43,1.43,1.96h-2.47c-.65,0-1.19.54-1.19,1.19v1.19h13.69v-1.19c-.03-.65-.57-1.19-1.22-1.19Z"/><path class="cls-5" d="m175.17,64.01c0,.65-.54,1.79-1.19,1.79s-1.19-1.13-1.19-1.79.54-1.19,1.19-1.19,1.19.54,1.19,1.19Z"/><path class="cls-5" d="m172.79,70.55c0-.65.54-1.79,1.19-1.79s1.19,1.13,1.19,1.79-.54,1.19-1.19,1.19-1.19-.54-1.19-1.19Z"/><path class="cls-5" d="m171.75,64.6c.57.33,1.28,1.37.95,1.93-.33.57-1.58.48-2.14.15s-.77-1.07-.45-1.64,1.07-.77,1.64-.45Z"/><path class="cls-5" d="m176.21,69.96c-.57-.33-1.28-1.37-.95-1.93.33-.57,1.58-.48,2.14-.15s.77,1.07.45,1.64-1.07.77-1.64.45Z"/><path class="cls-5" d="m170.56,67.87c.57-.33,1.82-.42,2.14.15.33.57-.39,1.61-.95,1.93s-1.31.12-1.64-.45-.12-1.31.45-1.64Z"/><path class="cls-5" d="m177.4,66.68c-.57.33-1.82.42-2.14-.15-.33-.57.39-1.61.95-1.93s1.31-.12,1.64.45.12,1.31-.45,1.64Z"/><circle class="cls-5" cx="185.88" cy="64.9" r=".89"/><path class="cls-5" d="m187.07,61.62c0,.65-.54,1.79-1.19,1.79s-1.19-1.13-1.19-1.79.54-1.19,1.19-1.19,1.19.54,1.19,1.19Z"/><path class="cls-5" d="m184.69,68.17c0-.65.54-1.79,1.19-1.79s1.19,1.13,1.19,1.79-.54,1.19-1.19,1.19-1.19-.54-1.19-1.19Z"/><path class="cls-5" d="m183.65,62.22c.57.33,1.28,1.37.95,1.93-.33.57-1.58.48-2.14.15s-.77-1.07-.45-1.64,1.07-.77,1.64-.45Z"/><path class="cls-5" d="m188.12,67.58c-.57-.33-1.28-1.37-.95-1.93.33-.57,1.58-.48,2.14-.15s.77,1.07.45,1.64-1.07.77-1.64.45Z"/><path class="cls-5" d="m182.46,65.49c.57-.33,1.82-.42,2.14.15.33.57-.39,1.61-.95,1.93s-1.31.12-1.64-.45-.12-1.31.45-1.64Z"/><path class="cls-5" d="m189.31,64.3c-.57.33-1.82.42-2.14-.15-.33-.57.39-1.61.95-1.93s1.31-.12,1.64.45.12,1.31-.45,1.64Z"/></g><g class="cls-13"><path class="cls-5" d="m1.19,119.62c0,.65.54,1.19,1.19,1.19v-2.38c-.65,0-1.19.54-1.19,1.19Z"/><path class="cls-5" d="m26.19,118.43v2.38c.65,0,1.19-.54,1.19-1.19s-.54-1.19-1.19-1.19Z"/><rect class="cls-5" x="2.98" y="115.16" width="2.68" height="8.93" rx="1.19" ry="1.19"/><rect class="cls-5" x="22.92" y="115.16" width="2.68" height="8.93" rx="1.19" ry="1.19"/><path class="cls-5" d="m21.13,112.48h-.6c-.65,0-1.19.54-1.19,1.19v4.17h-10.12v-4.17c0-.65-.54-1.19-1.19-1.19h-.6c-.65,0-1.19.54-1.19,1.19v11.91c0,.65.54,1.19,1.19,1.19h.6c.65,0,1.19-.54,1.19-1.19v-4.17h10.12v4.17c0,.65.54,1.19,1.19,1.19h.6c.65,0,1.19-.54,1.19-1.19v-11.91c0-.65-.54-1.19-1.19-1.19Z"/></g><g class="cls-12"><circle class="cls-5" cx="61.44" cy="111.36" r="1.49"/><circle class="cls-5" cx="67.99" cy="118.5" r="1.19"/><circle class="cls-5" cx="54.89" cy="111.36" r="1.49"/><circle class="cls-5" cx="48.35" cy="118.5" r="1.19"/><path class="cls-5" d="m71.21,123.62l-1.04-2.47c-.36-.51-.92-.89-1.55-1.07-.18-.06-.42-.09-.63-.09-.42,0-.8.09-1.16.27l-1.82-1.28-1.07-4.46c-.03-.12-.12-.27-.21-.33-.36-.27-.77-.48-1.22-.6-.36-.09-.71-.15-1.07-.15s-.71.06-1.04.15c-.45.12-.86.33-1.22.6-.12.09-.18.21-.21.33l-.8,3.21-.77-3.21c-.03-.12-.12-.27-.21-.33-.36-.27-.77-.48-1.22-.6-.36-.09-.71-.15-1.07-.15s-.71.06-1.04.15c-.45.12-.86.33-1.22.6-.12.09-.18.21-.21.33l-1.07,4.46-1.82,1.28c-.39-.18-.77-.27-1.19-.27-.21,0-.45.03-.63.09-.63.15-1.19.54-1.55,1.07l-1.04,2.47c-.12.27-.03.57.18.74.12.06.24.09.36.09.24,0,.45-.15.54-.36l.65-1.55v5.18h1.19v-3.57h.6v3.57h1.19v-6.25h.03l2.35-1.64c.12-.09.21-.21.24-.36l.95-3.96v12.2h1.19v-6.85h.6v6.85h1.19v-12.2l1.22,4.91c.06.27.3.45.57.45s.51-.18.57-.45l1.22-4.91v2.5l-1.04,4.35h1.04v5.36h1.19v-5.36h.6v5.36h1.19v-5.36h1.04l-1.04-4.35v-2.5l.98,3.96c.03.15.12.27.24.36l2.38,1.67v1.85l-.63,1.7h.6v2.68h1.19v-2.68h.6v2.68h1.19v-2.68h.6l-.57-1.58v-.92l.65,1.55c.09.24.33.36.54.36.12,0,.24-.03.36-.12.18-.15.27-.48.15-.71Z"/></g><g class="cls-10"><path class="cls-5" d="m109.49,112.95c-.16-.29-.52-.39-.81-.24-1.21.65-2.04.74-2.19.63l-.02-.02c0-.18.37-.65.49-.81.09-.11.18-.22.26-.34.33-.53.82-1.52.41-2.24-.16-.28-.51-.62-1.28-.6-.71.02-1.6.45-2.65.96-.26.13-.54.26-.81.39-1.32.61-3.27.73-3.57.43.23-.33.53-.6.89-.79,1.26-.7,1.8-1.38,1.65-2.08-.38-1.88-5.27-1.36-8.1-.76-.93.22-1.83.5-2.71.86-.25.1-.48.18-.71.26-.2.07-.35.26-.38.47l-2.67,5.19c-.25,0-.49.08-.68.23-.53.39-.64,1.13-.25,1.66l1.93,2.63c.34.46.97.61,1.49.35l1.11-.55c.03.52.09,1.03.19,1.54.21,1.05.56,2.07,1.03,3.03l-2.44,2.82c-.12.14-.2.29-.25.47l-1.19,4.43c-.17.63.2,1.29.84,1.46,0,0,0,0,0,0,.1.03.21.04.31.04.54,0,1.01-.37,1.15-.89l1.13-4.17,2.78-3.21,4.22-1.35c.24-.08.45-.22.6-.42l3.38-4.54c.39-.53.28-1.28-.25-1.67-.53-.39-1.28-.28-1.67.25l-3.15,4.23-1.79.57c-.28-.59-.48-1.22-.61-1.86-.09-.49-.13-.99-.14-1.49h2.27c.25-.02.5-.1.7-.25l2.83-2.08c.53-.39.64-1.14.25-1.67-.39-.53-1.14-.64-1.67-.25l-2.52,1.86h-4.81c-.19,0-.37.05-.53.13l-1.93.98-1.34-1.81c-.1-.14-.23-.25-.39-.34l2.42-4.7c.14.06.3.07.44.02l.72-.27c.82-.34,1.67-.61,2.53-.81,3.79-.8,6.25-.55,6.67-.18-.06.1-.27.39-1.04.81-.22.12-1.32.76-1.49,1.6-.07.33,0,.67.21.93.89,1.19,3.96.44,5.04-.05.28-.13.56-.26.83-.4.84-.4,1.71-.83,2.15-.84.07,0,.15,0,.22.02-.05.36-.18.7-.39,1-.03.05-.11.15-.18.24-.35.44-.82,1.04-.74,1.71.04.32.21.61.46.81.27.19.6.29.93.27.91,0,2.01-.52,2.54-.81.29-.15.4-.51.25-.8,0,0,0,0,0,0Z"/><circle class="cls-5" cx="93.86" cy="112.77" r="2.08"/></g><g class="cls-11"><path class="cls-5" d="m150.71,114.18c-.89,0-1.61,1.62-1.61,2.98,0,.82.27,1.37.68,1.66.22.14.37.35.44.6l-.19,6.37c.03.38.35.67.73.64.35-.02.62-.3.64-.64l-.19-6.37c.07-.25.22-.46.44-.6.4-.3.67-.84.67-1.66-.02-1.35-.73-2.98-1.62-2.98Z"/><path class="cls-5" d="m128.84,114.18h-.3v3.27c0,.1-.08.17-.17.17s-.17-.08-.17-.17v-3.27h-.45v3.27c0,.1-.08.17-.17.17s-.17-.08-.17-.17v-3.27h-.46v3.27c0,.1-.08.17-.17.17s-.17-.08-.17-.17v-3.27h-.3c-.2.98-.32,1.98-.35,2.98,0,.83.27,1.37.67,1.66.22.14.37.35.44.6l-.18,6.36c0,.38.31.69.69.69s.69-.31.69-.69l-.19-6.37c.07-.25.22-.46.44-.6.41-.3.68-.84.68-1.66-.05-1-.17-1.99-.36-2.96Z"/><path class="cls-5" d="m148.29,119.89v-6.89c0-.28-.22-.52-.51-.52,0,0,0,0-.01,0,0,0-.89.03-1.04,2.54l-.26,4.46c0,.23.53.41.73.48l-.26,5.74c.03.43.39.75.82.72.39-.02.7-.33.72-.72l-.2-5.8Z"/><path class="cls-5" d="m137.69,125.57c-3.45,0-6.25-2.8-6.25-6.25s2.8-6.25,6.25-6.25,6.25,2.8,6.25,6.25-2.8,6.25-6.25,6.25Zm0-14.29c-4.44,0-8.04,3.6-8.04,8.04s3.6,8.04,8.04,8.04,8.04-3.6,8.04-8.04-3.6-8.04-8.04-8.04Z"/><circle class="cls-5" cx="137.69" cy="119.32" r="5.36"/></g><g class="cls-14"><path class="cls-5" d="m180.76,110.08c-5.89,0-10.66,4.77-10.66,10.66v5.05c0,.48.36.84.84.84s.84-.36.84-.84v-.28h1.12v2.53c0,.62.51,1.12,1.12,1.12h1.68c.62,0,1.12-.51,1.12-1.12v-6.17c0-.62-.51-1.12-1.12-1.12h-1.68c-.62,0-1.12.51-1.12,1.12v2.53h-1.12v-3.65c0-4.94,4.04-8.98,8.98-8.98s8.98,4.04,8.98,8.98v3.65h-1.12v-2.53c0-.62-.51-1.12-1.12-1.12h-1.68c-.62,0-1.12.51-1.12,1.12v6.17c0,.62.51,1.12,1.12,1.12h1.68c.62,0,1.12-.51,1.12-1.12v-2.53h1.12v.28c0,.48.36.84.84.84s.84-.36.84-.84v-5.05c0-5.89-4.77-10.66-10.66-10.66Z"/></g><text class="cls-17" transform="translate(52.05 33.99)"><tspan x="0" y="0">In</tspan><tspan class="cls-15" x="18.06" y="0">t</tspan><tspan x="25.13" y="0">e</tspan><tspan class="cls-16" x="36.27" y="0">r</tspan><tspan class="cls-4" x="43.36" y="0">esser</tspan></text><line class="cls-2" x1="19.11" y1=".25" x2="202.85" y2=".25"/></g></svg>