<?xml version="1.0" encoding="UTF-8"?><svg id="Layer_2" xmlns="http://www.w3.org/2000/svg" width="35.28mm" height="23.11mm" viewBox="0 0 100 65.5"><defs><style>.cls-1{fill:#fecb1a;}.cls-2{stroke-width:4px;}.cls-2,.cls-3{fill:none;stroke:#fecb1a;stroke-miterlimit:10;}</style></defs><g id="Layer_1-2"><line class="cls-3" y1="65" x2="100" y2="65"/><path class="cls-1" d="m79.59,41.42c-.5.71-1.37,1.78-2.73,2.72-2.27,1.56-4.59,1.83-5.65,1.94-6.25.62-16.55.28-21.62.31-2.71.02-15.28.21-20.95-.21-.7-.05-2.35-.19-4.24-1.03-1.73-.77-2.95-1.82-3.72-2.6-.16-.36-.42-.98-.69-1.77-1.09-3.19-1.3-6.05-1.01-15.83.15-5.06.19-3.78.2-5.41.02-4.32-.3-5.37.44-7.2.38-.94,1.36-2.9,3.43-4.1,1.25-.73,2.46-.85,4.81-1.11,2.24-.25,4.09-.21,5.34-.14.5-1.48,1.5-3.69,3.61-5.3C38.69.27,40.46.05,49.24,0c9.43-.05,11.31.18,13.2,1.69,2.02,1.61,2.94,3.77,3.39,5.19,1.15-.06,2.87-.07,4.93.18,2.9.35,4.78.55,6.58,1.86,1.56,1.14,2.31,2.57,2.73,3.37,1,1.94,1.04,3.43,1.06,9.67.01,4.24,0,6.32-.06,8.99-.08,3.11-.18,5.07-.71,7.57-.26,1.21-.54,2.21-.76,2.9Zm-3.74-4.81c.45-2.11.54-3.77.61-6.39.06-2.25.06-4,.05-7.58-.02-5.27-.05-6.52-.9-8.16-.35-.68-.99-1.88-2.32-2.84-1.53-1.1-3.14-1.27-5.6-1.56-1.76-.21-3.22-.2-4.2-.15-.38-1.19-1.16-3.02-2.88-4.38-1.62-1.27-3.22-1.47-11.25-1.43-7.48.04-8.98.22-10.57,1.43-1.8,1.36-2.65,3.23-3.08,4.47-1.06-.06-2.65-.09-4.55.11-2.01.22-3.04.32-4.1.93-1.76,1.01-2.6,2.66-2.92,3.46-.63,1.54-.35,2.43-.37,6.07,0,1.37-.04.29-.17,4.56-.25,8.25-.08,10.66.86,13.36.23.66.45,1.19.58,1.49.66.65,1.7,1.54,3.17,2.19,1.61.71,3.01.83,3.61.87,4.83.35,15.54.19,17.84.17,4.32-.03,13.09.27,18.41-.26.9-.09,2.88-.32,4.81-1.63,1.16-.79,1.9-1.7,2.32-2.29.18-.58.43-1.42.65-2.44Z"/><circle class="cls-2" cx="50" cy="24.88" r="12.67"/></g></svg>