<?xml version="1.0" encoding="UTF-8"?><svg id="Layer_2" xmlns="http://www.w3.org/2000/svg" width="41.66" height="41.66" viewBox="0 0 41.66 41.66"><defs><style>.cls-1,.cls-2{fill:none;}.cls-2{stroke:#2f52a0;stroke-linecap:round;stroke-linejoin:round;stroke-width:2.75px;}</style></defs><g id="Layer_2-2"><path class="cls-1" d="m0,0h41.66v41.66H0V0Z"/><path class="cls-2" d="m6.94,13.89c0-3.83,3.11-6.94,6.94-6.94h13.89c3.83,0,6.94,3.11,6.94,6.94v13.89c0,3.83-3.11,6.94-6.94,6.94h-13.89c-3.83,0-6.94-3.11-6.94-6.94v-13.89Z"/><path class="cls-2" d="m15.62,20.83c0,2.88,2.33,5.21,5.21,5.21s5.21-2.33,5.21-5.21-2.33-5.21-5.21-5.21-5.21,2.33-5.21,5.21"/><path class="cls-2" d="m28.64,13.02v.02"/></g></svg>