<?xml version="1.0" encoding="UTF-8"?><svg id="Layer_2" xmlns="http://www.w3.org/2000/svg" width="44" height="44" viewBox="0 0 44 44"><defs><style>.cls-1,.cls-2{fill:none;}.cls-2{stroke:#2f52a0;stroke-linecap:round;stroke-linejoin:round;stroke-width:2.75px;}</style></defs><g id="Layer_2-2"><path class="cls-1" d="m0,0h44v44H0V0Z"/><path class="cls-2" d="m7.33,11c0-2.03,1.64-3.67,3.67-3.67h22c2.03,0,3.67,1.64,3.67,3.67v22c0,2.03-1.64,3.67-3.67,3.67H11c-2.03,0-3.67-1.64-3.67-3.67V11Z"/><path class="cls-2" d="m14.67,20.17v9.17"/><path class="cls-2" d="m14.67,14.67v.02"/><path class="cls-2" d="m22,29.33v-9.17"/><path class="cls-2" d="m29.33,29.33v-5.5c0-2.03-1.64-3.67-3.67-3.67s-3.67,1.64-3.67,3.67"/></g></svg>