<?xml version="1.0" encoding="UTF-8"?><svg id="Layer_2" xmlns="http://www.w3.org/2000/svg" width="187.4" height="55.84" xmlns:xlink="http://www.w3.org/1999/xlink" viewBox="0 0 187.4 55.84"><defs><style>.cls-1{fill:none;}.cls-2{clip-path:url(#clippath);}.cls-3,.cls-4,.cls-5,.cls-6,.cls-7,.cls-8,.cls-9,.cls-10,.cls-11{isolation:isolate;}.cls-3,.cls-4,.cls-5,.cls-6,.cls-7,.cls-8,.cls-10,.cls-11{fill:#cf382e;}.cls-3,.cls-5,.cls-6{font-size:50px;}.cls-3,.cls-5,.cls-6,.cls-7{font-family:MeganDemoFont-Regular, 'Megan Demo Font';}.cls-4{letter-spacing:.07em;}.cls-4,.cls-8,.cls-10,.cls-11{font-family:Montserrat-Light, Montserrat;font-size:12px;font-weight:300;}.cls-5{letter-spacing:-.02em;}.cls-6{letter-spacing:-.03em;}.cls-7{font-size:54.8px;}.cls-8{letter-spacing:.03em;}.cls-10{letter-spacing:.04em;}.cls-11{letter-spacing:.04em;}</style><clipPath id="clippath"><rect class="cls-1" x="27.86" y="2.73" width="159.54" height="34.14"/></clipPath></defs><g id="Layer_2-2"><g id="Layer_1-2"><g class="cls-2"><g class="cls-9"><text class="cls-3" transform="translate(.26 42.7)"><tspan x="0" y="0">po</tspan></text><text class="cls-5" transform="translate(55.11 42.7)"><tspan x="0" y="0">r</tspan></text><text class="cls-3" transform="translate(75.11 42.7)"><tspan x="0" y="0">t</tspan></text><text class="cls-6" transform="translate(90.16 42.7)"><tspan x="0" y="0">f</tspan></text><text class="cls-3" transform="translate(103.41 42.7)"><tspan x="0" y="0">olio</tspan></text></g></g><g class="cls-9"><text class="cls-7" transform="translate(0 44.72) scale(.95 1)"><tspan x="0" y="0">p</tspan></text></g><g class="cls-9"><text class="cls-10" transform="translate(33.43 48.26)"><tspan x="0" y="0">a</tspan></text><text class="cls-4" transform="translate(40.91 48.26)"><tspan x="0" y="0">f</tspan></text><text class="cls-10" transform="translate(52.09 48.26)"><tspan x="0" y="0">L</tspan></text><text class="cls-10" transform="translate(59.6 48.26)"><tspan x="0" y="0">au</tspan></text><text class="cls-8" transform="translate(75.59 48.26)"><tspan x="0" y="0">r</tspan></text><text class="cls-10" transform="translate(80.69 48.26)"><tspan x="0" y="0">a S</tspan></text><text class="cls-10" transform="translate(99.51 48.26)"><tspan x="0" y="0">m</tspan></text><text class="cls-10" transform="translate(112.77 48.26)"><tspan x="0" y="0">edegaa</tspan></text><text class="cls-8" transform="translate(160.26 48.26)"><tspan x="0" y="0">r</tspan></text><text class="cls-11" transform="translate(165.3 48.26)"><tspan x="0" y="0">d</tspan></text></g></g></g></svg>