<?xml version="1.0" encoding="UTF-8"?><svg id="Layer_2" xmlns="http://www.w3.org/2000/svg" width="44" height="44" viewBox="0 0 44 44"><defs><style>.cls-1,.cls-2{fill:none;}.cls-2{stroke:#2f52a0;stroke-linecap:round;stroke-linejoin:round;stroke-width:2.75px;}</style></defs><g id="Layer_2-2"><path class="cls-1" d="m0,0h44v44H0V0Z"/><path class="cls-2" d="m14.67,22c0,4.05,3.28,7.33,7.33,7.33s7.33-3.28,7.33-7.33-3.28-7.33-7.33-7.33-7.33,3.28-7.33,7.33"/><path class="cls-2" d="m29.33,22v2.75c0,2.53,2.05,4.58,4.58,4.58s4.58-2.05,4.58-4.58v-2.75c.01-9.11-7.37-16.51-16.48-16.52-9.11-.01-16.51,7.37-16.52,16.48-.01,9.11,7.37,16.51,16.48,16.52,2.21,0,4.4-.44,6.44-1.3"/></g></svg>