<?xml version="1.0" encoding="UTF-8"?><svg id="Layer_2" xmlns="http://www.w3.org/2000/svg" width="64.68mm" height="36.11mm" viewBox="0 0 183.33 102.36"><defs><style>.cls-1{letter-spacing:-.02em;}.cls-2{letter-spacing:0em;}.cls-3{font-family:Montserrat-Light, Montserrat;font-size:9.33px;font-weight:300;}.cls-3,.cls-4{fill:#f49ac0;}.cls-5{stroke-width:1.4px;}.cls-5,.cls-4,.cls-6{stroke:#f49ac0;stroke-miterlimit:10;}.cls-5,.cls-6{fill:none;}.cls-7{letter-spacing:0em;}.cls-8{letter-spacing:-.01em;}.cls-9{letter-spacing:-.02em;}.cls-10{letter-spacing:-.01em;}.cls-11{letter-spacing:-.02em;}.cls-12{letter-spacing:0em;}.cls-13{letter-spacing:0em;}.cls-14{letter-spacing:-.02em;}</style></defs><g id="Layer_2-2"><path class="cls-6" d="m1.9,15.18c-.99-.95-1.42-2.44-1.09-3.77.29-1.14,1.08-2.1,1.4-3.23.41-1.41.07-3.01.74-4.32.53-1.05,1.7-1.74,2.88-1.7.21-.85,1.14-1.3,1.99-1.49,1.77-.4,3.8-.11,5.06,1.19.34.35.61.76.87,1.16.44.67.89,1.35,1.17,2.1.32.88.4,1.83.37,2.77-.02.65-.1,1.32.13,1.93.11.31.3.58.44.87.28.59.38,1.26.47,1.91.18,1.24.35,2.53,0,3.74-.4,1.33-1.42,2.46-1.51,3.84"/><path class="cls-6" d="m5.55,5.64c-.33.47-.65.97-.84,1.51-.19.54-.24,1.13-.26,1.7-.03.86.02,1.73.33,2.53.56,1.45,1.95,2.48,3.46,2.86.78.19,1.6.24,2.37.02s1.48-.7,1.88-1.39c.25-.44.38-.93.48-1.43.18-.9.27-1.82.28-2.74,0-.22,0-.45-.09-.66-.12-.28-.38-.47-.64-.63-.94-.57-2.03-.89-2.87-1.6-.29-.25-.54-.54-.85-.76-.4-.29-1.43-.9-1.93-.88-.54.02-1.05,1.06-1.32,1.45Z"/><path class="cls-6" d="m7.53,11.5c.22.11.97.45,1.9.24.62-.14,1.04-.47,1.24-.65"/><path class="cls-6" d="m1.12,24.2c-.09-1.09-.07-2-.03-2.67.06-1.02.13-1.56.37-2.28.24-.73.67-1.43,1.31-1.86.27-.18.56-.31.85-.44.41-.18.81-.36,1.22-.54.05-.02.11-.05.16-.04.11.01.18.12.19.14.09.12.69.48,2.33,1.3"/><circle class="cls-4" cx="7.14" cy="8.32" r=".38"/><circle class="cls-4" cx="10.11" cy="8.13" r=".38"/><text class="cls-3" transform="translate(34.74 16.48)"><tspan class="cls-12" x="0" y="0">0</tspan><tspan x="6.04" y="0">3 Mar </tspan><tspan class="cls-7" x="34.08" y="0">2</tspan><tspan x="39.29" y="0">000</tspan></text><path class="cls-5" d="m5.26,45.58c-.59-.93-1.18-1.86-1.77-2.8-1.32-2.11-2.64-4.34-2.78-6.82-.17-2.91,1.49-5.85,4.07-7.21s5.94-1.06,8.25.72,3.43,4.97,2.77,7.8c-.94,4.02-4.93,6.7-6.21,10.63-.18.54-.33,1.15-.8,1.47-1.35.93-3.07-3.06-3.54-3.8Z"/><path class="cls-5" d="m5.8,39.67c-1.07-2.55-1.38-2.79-1.44-3.89-.02-.41-.17-3.04,1.68-4.43,1.07-.81,2.3-.8,2.44-.8.3,0,1.09.06,1.88.54,1.93,1.17,2.03,3.75,2.04,4.08.03,1.12-.31,1.96-.79,3.16-.4,1-.62,1.2-1.5,2.82-1.48,2.74-1.57,3.48-2.02,3.48-.62,0-.8-1.4-2.29-4.97Z"/><text class="cls-3" transform="translate(35.25 41.54)"><tspan class="cls-12" x="0" y="0">F</tspan><tspan class="cls-8" x="5.79" y="0">r</tspan><tspan x="9.34" y="0">ede</tspan><tspan class="cls-2" x="26.77" y="0">r</tspan><tspan x="30.36" y="0">i</tspan><tspan class="cls-9" x="32.8" y="0">k</tspan><tspan x="38.13" y="0">sbe</tspan><tspan class="cls-10" x="54.46" y="0">r</tspan><tspan x="58" y="0">g</tspan></text><path class="cls-5" d="m8.2,61.23c-.12-.78-.65-1.42-1.17-2.01-.95-1.1-2.14-2.3-3.59-2.16-.98.1-1.82.84-2.25,1.73s-.51,1.91-.48,2.9c.02.76.11,1.52.33,2.25.55,1.79,1.88,3.21,3.18,4.57.82.86,1.64,1.72,2.45,2.57.63.66,1.27,1.33,2.05,1.79,1.54.92,3.45.94,5.23.75,1.55-.17,3.3-.65,3.97-2.07.14-.29.22-.61.18-.93-.04-.3-.17-.58-.33-.84-.44-.74-1.05-1.41-1.83-1.77s-1.75-.38-2.47.09c-.45.3-.87.79-1.4.7-.21-.03-.39-.15-.56-.27-1.36-.96-2.53-2.18-3.44-3.58-.33-.5-.89-1.18-.69-1.81.23-.74.97-.99.83-1.92Z"/><path class="cls-5" d="m11.21,59.62c.18-.07,1.55-.59,2.87.17,1.1.63,1.74,1.89,1.64,3.22"/><path class="cls-5" d="m10.28,56.54c2.24-1.29,5.02-1.15,7.06.35,2.21,1.62,3.13,4.55,2.26,7.22"/><text class="cls-3" transform="translate(36.39 66.93)"><tspan class="cls-7" x="0" y="0">2</tspan><tspan x="5.21" y="0">7 14 10 72</tspan></text><path class="cls-5" d="m.8,83.04c.01,1.13.04,3.66.06,7.01.03,4,.02,4.76.65,5.47,1.34,1.52,3.49.42,9.22.38,6.13-.04,8.44,1.18,9.62-.33.72-.93.11-1.74-.28-6.32-.37-4.42,0-6.12-.72-6.37-1.33-.45-5.57,4.24-7.39,5.83-.17.15-.59.51-1.07.43-.27-.04-.46-.2-.5-.25-1.05-.89-9.97-4.8-9.67-6.25.2-.95,4.47-1.29,18.43.21"/><text class="cls-3" transform="translate(36.59 88.76)"><tspan class="cls-13" x="0" y="0">L</tspan><tspan x="5.47" y="0">au</tspan><tspan class="cls-2" x="17.15" y="0">r</tspan><tspan x="20.74" y="0">as</tspan><tspan class="cls-13" x="30.63" y="0">m</tspan><tspan x="40.57" y="0">edegaa</tspan><tspan class="cls-8" x="75.24" y="0">r</tspan><tspan x="78.79" y="0">d@gmail</tspan><tspan class="cls-14" x="121.32" y="0">.</tspan><tspan class="cls-2" x="123.02" y="0">c</tspan><tspan x="128.12" y="0">om</tspan></text><text class="cls-3" transform="translate(36.59 88.76)"><tspan class="cls-13" x="0" y="0">L</tspan><tspan x="5.47" y="0">au</tspan><tspan class="cls-2" x="17.15" y="0">r</tspan><tspan x="20.74" y="0">as</tspan><tspan class="cls-13" x="30.63" y="0">m</tspan><tspan x="40.57" y="0">edegaa</tspan><tspan class="cls-8" x="75.24" y="0">r</tspan><tspan x="78.79" y="0">d@gmail</tspan><tspan class="cls-14" x="121.32" y="0">.</tspan><tspan class="cls-2" x="123.02" y="0">c</tspan><tspan x="128.12" y="0">om</tspan></text><text class="cls-3" transform="translate(36.59 99.93)"><tspan class="cls-13" x="0" y="0">L</tspan><tspan x="5.47" y="0">aha0005@stud.</tspan><tspan class="cls-1" x="78.45" y="0">k</tspan><tspan class="cls-11" x="83.74" y="0">e</tspan><tspan x="89.17" y="0">a</tspan><tspan class="cls-14" x="94.61" y="0">.</tspan><tspan x="96.32" y="0">dk</tspan></text></g></svg>