<?xml version="1.0" encoding="UTF-8"?><svg id="Layer_2" xmlns="http://www.w3.org/2000/svg" width="35.28mm" height="23.11mm" viewBox="0 0 100 65.5"><defs><style>.cls-1{fill:#cf382d;}.cls-2{fill:none;stroke:#cf382d;stroke-miterlimit:10;}</style></defs><g id="Layer_1-2"><path class="cls-1" d="m31.29,7.58c1.72.02,3.76.4,4.92-.88.53-.58.72-1.38,1.01-2.11,1.47-3.65,6.17-5.6,9.79-4.05,2.63,1.12,4.48,3.7,7.2,4.58,3.01.97,6.74-.26,9.19,1.74,2.84,2.31,1.84,7.21,4.33,9.88,1.35,1.45,3.45,1.93,4.94,3.23,2.08,1.81,2.58,4.82,2.61,7.58.09,8.46-4.2,17.85-12.36,20.04-2.23.6-4.58.61-6.89.62-5.68.02-11.36.05-17.03.07-21.35.09-28.59-40.88-7.71-40.69Z"/><line class="cls-2" y1="65" x2="100" y2="65"/></g></svg>