<?xml version="1.0" encoding="UTF-8"?><svg id="Layer_2" xmlns="http://www.w3.org/2000/svg" width="35.28mm" height="23.11mm" viewBox="0 0 100 65.5"><defs><style>.cls-1{fill:#cf382d;}.cls-2{fill:none;stroke:#cf382d;stroke-miterlimit:10;}</style></defs><g id="Layer_1-2"><line class="cls-2" y1="65" x2="100" y2="65"/><path class="cls-1" d="m27.6,22.06c.66-1.41,1.32-2.81,1.98-4.22.21-.36.74-1.14,1.75-1.65.65-.33,1.26-.42,1.64-.44,7.33.05,14.65.11,21.98.16,5.73-.28,11.75-.38,18.04-.25,2.73.06,5.4.16,8.02.29.19.04.71.2,1.04.68.43.63.34,1.57-.25,2.3-.73,1.56-1.45,3.12-2.17,4.68-3.23,7-6.36,13.96-9.39,20.87-.25.47-.63,1.02-1.17,1.56-1.47,1.44-3.22,1.8-3.99,1.91-7.07.15-14.24.25-21.5.29-8.49.04-16.84,0-25.05-.11-.47-.11-1.14-.34-1.46-.91-.61-1.06.39-2.52,1.59-4.97.56-1.14,1.35-2.86,2.14-5.1,2.27-5.04,4.53-10.07,6.8-15.11Z"/><path class="cls-1" d="m18.76,33.4c-.84,1.65-1.16,2.36-1.32,2.72-.74,1.68-1.23,3.11-1.54,4.11,0-2.82.02-5.65.02-8.47.02-4.56.04-9.11.05-13.67-.05-3.02-.11-6.05-.16-9.07.02-.44.14-1.21.71-1.69.44-.37.96-.42,1.21-.44,5.09-.39,12.14-.11,12.14-.11.76.03,2.03.07,3.64.05,0-.21,0-.51.02-.88.09-2.36.14-3.54.79-4.47.27-.38.87-1.04,2.2-1.42,3.69-.02,7.37-.04,11.06-.05.35.07.96.23,1.54.69.55.43.82.91,1.08,1.39.24.43.55,1.11.71,2.02.08.91.17,1.82.25,2.72,4.99.01,9.97.02,14.96.03.24.05,1.16.27,1.78,1.15.41.58.5,1.16.52,1.44,0,.9,0,1.79.01,2.69-18.55.11-32.04.22-34.38.22-.38,0-1.48,0-2.75.49-1.17.46-1.97,1.15-2.58,1.74-2.15,2.11-3.48,4.71-4.02,5.81-2.23,4.53-1.7,5.03-3.71,8.75-.31.57-1.14,2.08-2.24,4.25ZM47.94,6.32c-.02-.98-.01-1.75,0-2.27.01-.6.03-.95-.21-1.24-.35-.43-1.01-.44-1.3-.42-2.68-.03-5.36-.06-8.04-.09-.2,0-.53.02-.77.24-.3.29-.27.74-.26,1.02.03.68.03,1.55,0,2.75,1.93,0,3.86,0,5.79,0h4.8Z"/></g></svg>