<?xml version="1.0" encoding="UTF-8"?><svg id="Layer_2" xmlns="http://www.w3.org/2000/svg" width="35.28mm" height="23.11mm" viewBox="0 0 100 65.5"><defs><style>.cls-1,.cls-2{fill:#a9d0d2;}.cls-2{stroke:#a9d0d2;stroke-miterlimit:10;}</style></defs><g id="Layer_1-2"><line class="cls-2" y1="65" x2="100" y2="65"/><path class="cls-1" d="m28,1.06c-4.71,1.7-9.05,5.6-10.11,10.86-1.12,5.62,2.21,11.86,7.27,13.61,1.59.55,3.3.7,4.81,1.45,4,1.98,5.4,7.33,5.85,12.07s.58,9.93,3.44,13.54c1.96,2.48,4.9,3.76,7.8,4.68,4.78,1.5,10.51,2.01,14.19-1.61,7.28-7.14-.15-22.22,6.42-30.12,2.84-3.41,7.86-4.73,9.39-9.02,1.26-3.53-.64-7.64-3.47-9.85s-6.39-2.97-9.83-3.67c-3.69-.75-7.5-1.5-11.17-.62-9.35,2.26-14.43-5-24.6-1.32Z"/></g></svg>