<?xml version="1.0" encoding="UTF-8"?><svg id="Layer_2" xmlns="http://www.w3.org/2000/svg" width="35.28mm" height="23.11mm" viewBox="0 0 100 65.5"><defs><style>.cls-1,.cls-2{fill:#a9d0d2;}.cls-2{stroke:#a9d0d2;stroke-miterlimit:10;}</style></defs><g id="Layer_1-2"><line class="cls-2" y1="65" x2="100" y2="65"/><path class="cls-1" d="m30.24,57.21c.26.03.52.06.78.09,11.84,1.39,24.5,1.54,37.96.02.17-.51.35-1.03.52-1.54-.04-11.75-.09-23.5-.13-35.25,2.75.37,4.61.78,5.95,1.17.51.15,1.65.54,2.39-.05.32-.25.5-.64.67-1.02,1.7-3.79,3.4-7.58,5.11-11.37-1.54-.89-6.64-3.81-11.62-5.94,0,0-2.56-1.09-5.68-2.08-3.14-.99-2.14-.37-3.37-.86-.61-.24-1.31-.57-2-.29-.45.18-.75.55-.89.72-.39.49-.53.99-.59,1.27-.35.92-1.38,3.23-3.87,4.95-.73.51-3.44,2.31-7.1,1.81,0,0-3.46-.48-5.99-3.25-1.29-1.42-2.17-3.25-2.25-3.81,0-.07-.05-.47-.27-.93,0,0-.11-.23-.24-.42-.62-.87-3.69.05-3.69.05-3.59,1.08-5.38,1.62-6.39,2.07-2.32,1.02-4.29,2.01-6.84,3.35-1.69.89-4.01,2.14-6.77,3.7,1.28,2.39,2.6,4.81,3.98,7.25.94,1.67,1.89,3.32,2.84,4.94,1.69-.42,3.43-.82,5.24-1.19.73-.15,1.45-.29,2.17-.42,0,.79,0,1.98,0,3.42-.02,6.3-.11,10.94-.13,12.03-.07,3.85-.08,10.27.2,21.56Z"/><path class="cls-1" d="m45.08,3.78c.31.35.64.69,1.04.93.42.25.91.36,1.39.45,1.45.27,2.96.36,4.4.01s2.79-1.17,3.55-2.43c.48-.8.7-1.72.92-2.63-2.25.32-4.52.46-6.8.42S45.18-.04,43.05,0c.05,1.41,1.11,2.77,2.03,3.78Z"/></g></svg>