<?xml version="1.0" encoding="UTF-8"?><svg id="Layer_2" xmlns="http://www.w3.org/2000/svg" width="35.28mm" height="23.11mm" viewBox="0 0 100 65.5"><defs><style>.cls-1,.cls-2{fill:#f47421;}.cls-2{stroke:#f47421;stroke-miterlimit:10;}</style></defs><g id="Layer_1-2"><line class="cls-2" y1="65" x2="100" y2="65"/><path class="cls-1" d="m80.03,35.86H25.32c-2.33,0-4.22-1.89-4.22-4.22V4.22c0-2.33,1.89-4.22,4.22-4.22h54.72c2.33,0,4.22,1.89,4.22,4.22v27.43c0,2.33-1.89,4.22-4.22,4.22Zm1.42-7.26V7.26c0-2.33-1.89-4.22-4.22-4.22H28.12c-2.33,0-4.22,1.89-4.22,4.22v21.33c0,2.33,1.89,4.22,4.22,4.22h49.12c2.33,0,4.22-1.89,4.22-4.22Z"/><path class="cls-1" d="m86.77,48.8H16.09c-1.55,0-2.81-1.35-2.81-3.02,2.64-4.32,5.28-8.65,7.91-12.97.94.07,2.15.17,3.55.27,12.36.87,32.06,1.67,56.15-.01,1.43-.1,2.62-.19,3.45-.26,1.75,4.32,3.49,8.65,5.24,12.97,0,1.67-1.26,3.02-2.81,3.02Z"/><rect class="cls-1" x="51.85" y="36.66" width="2.03" height="17.59" rx=".92" ry=".92" transform="translate(98.31 -7.41) rotate(90)"/></g></svg>