<?xml version="1.0" encoding="UTF-8"?><svg id="Layer_2" xmlns="http://www.w3.org/2000/svg" width="31.88mm" height="13.97mm" viewBox="0 0 90.36 39.6"><defs><style>.cls-1{fill:none;stroke:#4f64ae;stroke-miterlimit:10;stroke-width:4px;}</style></defs><g id="Layer_1-2"><path class="cls-1" d="m89.1,3.8c-1.73,1.41-4.31,3.53-7.4,6.18-5.51,4.74-9.39,8.12-10.47,9.39-8.22,9.63-21.54,16.86-33.66,17.98-3.89.36-10.41.87-18.11-3.03C10.04,29.54,4.32,20.91,1.73,16.43"/><path class="cls-1" d="m1.53,18.48C5.48,14.25,18.15,1.81,36.29,2c16.83.18,29.11,11.14,32.93,15.17.88.93,3.87,4.19,7.4,8.37,4.16,4.91,7.44,9.13,9.58,11.97"/></g></svg>