<?xml version="1.0" encoding="UTF-8"?><svg id="Layer_2" xmlns="http://www.w3.org/2000/svg" width="28.44mm" height="14.71mm" viewBox="0 0 80.63 41.68"><defs><style>.cls-1{fill:#4f64ae;}</style></defs><g id="Layer_1-2"><path class="cls-1" d="m38.61,1.99C28.73.03,21.35-1,13.63,2.37,5.79,5.79-.5,14.06.03,22.96c.35,5.85,3.61,11.32,8.21,14.64s10.41,4.56,15.96,3.92c5.6-.64,10.85-3.07,16.27-4.66,5.42-1.59,11.48-2.28,16.49.42,1.47.79,2.81,1.85,4.36,2.44,1.77.68,3.69.69,5.58.71,3.81.02,8.24-.27,10.44-3.54,3.22-4.78-.98-11.39-.04-17.16.62-3.79,3.47-7.05,3.32-10.89-.14-3.55-2.93-6.5-6.09-7.75-3.16-1.25-6.64-1.16-10.02-1.01-1.17.05-1.77.08-2.37.26-3.04.96-3.53,3.76-6.46,5.09-.76.35-1.94.71-3.61.59-3.03-1.23-7.66-2.88-13.46-4.03Z"/></g></svg>