<?xml version="1.0" encoding="UTF-8"?><svg id="Layer_2" xmlns="http://www.w3.org/2000/svg" width="25.09mm" height="18.2mm" viewBox="0 0 71.11 51.59"><defs><style>.cls-1{fill:#fecb1a;isolation:isolate;}</style></defs><g id="Layer_1-2"><path class="cls-1" d="m42.32,1.4c4.33,2.03,7.76,5.92,12.26,7.5,2.96,1.04,6.25,1.03,9.06,2.47,2.74,1.4,4.74,4.09,5.95,7.02,3.66,8.89.31,19.59-5.86,26.79-1.85,2.16-3.99,4.12-6.56,5.19-2.79,1.16-5.87,1.19-8.86,1.21-10.2.05-20.54.07-30.39-2.71-6.34-1.79-12.75-5.08-16.08-11.02S-.32,22.91,5.55,19.84c2.98-1.56,6.51-1.37,9.7-2.39,5.95-1.89,5.05-9.04,9.19-13.18C28.92-.19,36.84-1.17,42.32,1.4Z"/></g></svg>