<?xml version="1.0" encoding="UTF-8"?><svg id="Layer_2" xmlns="http://www.w3.org/2000/svg" width="18.96mm" height="21.46mm" viewBox="0 0 53.73 60.84"><defs><style>.cls-1,.cls-2{fill:#f49ac0;}.cls-2{isolation:isolate;}</style></defs><g id="Layer_1-2"><path class="cls-2" d="m8.57,48.56c2.74.03,5.48.05,8.21.08.07,3.13.14,6.26.21,9.4.07.28.44,1.63,1.79,2.37,1.63.89,3.32.14,3.66,0,1.35-.59,1.99-1.67,2.18-2.05-.04-3.34-.08-6.67-.11-10.01,1.69,0,3.39-.01,5.08-.02-.02,1.53-.03,3.06-.02,4.59.01,1.64-.28,2.86.1,4.59.24,1.14.38,1.74.93,2.26,1.22,1.16,3.67,1.16,5.16,0,.72-.56,1.06-1.26,1.21-1.67.05-3.22.11-6.45.16-9.67,1.34-.02,2.7-.02,4.09-.01,1.35,0,2.68.03,3.98.06-.28-1.64-.78-4.11-1.66-7.05-1.13-3.77-2.32-6.4-1.73-6.73.55-.31,1.81,1.88,5.19,3.46,1.56.73,3.26,1.5,4.78.77,1.09-.52,1.89-1.73,1.95-2.91,0,0,.05-.96-.56-1.96-1.84-3.01-14.56-11.26-15.21-11.67-3.51.04-7.02.08-10.53.13-4.02.11-8.04.23-12.05.34-3.45,2.56-6.9,5.12-10.35,7.68-1.24.97-2.49,1.95-3.73,2.92-1.07,1.03-1.56,2.45-1.17,3.64.58,1.73,3.02,2.9,5.5,2.03,1.31-.87,2.61-1.75,3.92-2.62.98-1.08,2.11-2.18,2.52-1.94.49.28-.34,2.28-.92,4.19-.99,3.24-1.85,6.51-2.58,9.81Z"/><path class="cls-1" d="m15.77,8.98c-.56.52-1.34,1.4-1.66,2.62-.4,1.52.29,2.17-.13,3.29-.77,2.05-4.31,3.13-4.92,2.55-.5-.47,1.31-1.65.91-3.51-.28-1.28-1.33-1.6-1.26-2.85.05-.94.7-1.61,1-1.92.09-.09,1.62-1.63,3.5-1.42,1.1.12,1.45.75,2.08.58.89-.25.83-1.8,1.15-2.37C18.46,2.34,22.75,0,27.34,0c6.7,0,12.14,4.76,12.14,10.62s-5.43,10.62-12.14,10.62-12.14-4.76-12.14-10.62c0-.92.11-1.73.31-2.38"/><path class="cls-1" d="m38.27,7.41c1.02-.96,2.49-1.55,3.98-1.59.44-.01.9.02,1.31.17,1.23.45,1.71,1.79,1.65,2.95s-.48,2.32-.41,3.48c.1,1.68,1.22,3.16,2.3,4.55-1.51-.14-3.18-.37-4.1-1.43-.63-.73-.74-1.7-1.19-2.53-.69-1.28-2.23-2.17-3.85-2.21"/></g></svg>