<?xml version="1.0" encoding="UTF-8"?><svg id="Layer_2" xmlns="http://www.w3.org/2000/svg" width="21.86mm" height="20.78mm" viewBox="0 0 61.97 58.9"><defs><style>.cls-1{fill:#f49ac0;isolation:isolate;}</style></defs><g id="Layer_1-2"><path class="cls-1" d="m29.57.49c6.21-1.72,11.62,1.53,12.83,2.62,1.32,1.2,1.9,2.39,2.59,3.87.74,1.58,1.1,2.88,1.26,4.01.67,4.82.07,5.67.73,7.5,1.69,4.68,8.85,2.88,13.03,8.84.37.52,2.89,4.11,1.61,6.87-.83,1.77-2.47,1.57-5.53,4.04-2.03,1.64-4.29,3.47-4.68,6.01-.51,3.36,2.77,4.48,2.42,8.05-.27,2.71-2.4,5.43-5.06,6.21-3.25.95-7.29.1-9.38-1.99-.65-.65-1.16-1.42-2.08-1.86-2.35-1.12-5.21.62-7.11,2.13-2.77,2.21-5.19,1.95-7.17,1.54-.41-.08-2.75-.78-4.29-2.78-2.22-2.89-.15-5.14-2.07-9.07-.35-.73-1.51-3.1-3.97-4.39-4.01-2.1-7.2.92-9.98-.87-2.55-1.64-3.62-6.6-1.82-9.73,2.66-4.62,9.79-2.16,14.32-7.87,1.02-1.28,1.58-2.79,2.72-5.81,2.27-6.05,1.28-7.65,3.14-10.84C23.9,2.14,29.24.58,29.57.49Z"/></g></svg>