<?xml version="1.0" encoding="UTF-8"?><svg id="Layer_2" xmlns="http://www.w3.org/2000/svg" width="21.09mm" height="20.6mm" viewBox="0 0 59.79 58.41"><defs><style>.cls-1{fill:#a9d0d2;}</style></defs><g id="Layer_1-2"><path class="cls-1" d="m10.32,1.06C5.61,2.77,1.27,6.66.22,11.92c-1.12,5.62,2.21,11.86,7.27,13.61,1.59.55,3.3.7,4.81,1.45,4,1.98,5.4,7.33,5.85,12.07s.58,9.93,3.44,13.54c1.96,2.48,4.9,3.76,7.8,4.68,4.78,1.5,10.51,2.01,14.19-1.61,7.28-7.14-.15-22.22,6.42-30.12,2.84-3.41,7.86-4.73,9.39-9.02,1.26-3.53-.64-7.64-3.47-9.85s-6.39-2.97-9.83-3.67c-3.69-.75-7.5-1.5-11.17-.62-9.35,2.26-14.43-5-24.6-1.32Z"/></g></svg>