<?xml version="1.0" encoding="UTF-8"?><svg id="Layer_2" xmlns="http://www.w3.org/2000/svg" width="26.92mm" height="17.22mm" viewBox="0 0 76.3 48.8"><defs><style>.cls-1{fill:#f47421;}</style></defs><g id="Layer_1-2"><path class="cls-1" d="m66.76,35.86H12.04c-2.33,0-4.22-1.89-4.22-4.22V4.22c0-2.33,1.89-4.22,4.22-4.22h54.72c2.33,0,4.22,1.89,4.22,4.22v27.43c0,2.33-1.89,4.22-4.22,4.22Zm1.42-7.26V7.26c0-2.33-1.89-4.22-4.22-4.22H14.84c-2.33,0-4.22,1.89-4.22,4.22v21.33c0,2.33,1.89,4.22,4.22,4.22h49.12c2.33,0,4.22-1.89,4.22-4.22Z"/><path class="cls-1" d="m73.5,48.8H2.81c-1.55,0-2.81-1.35-2.81-3.02,2.64-4.32,5.28-8.65,7.91-12.97.94.07,2.15.17,3.55.27,12.36.87,32.06,1.67,56.15-.01,1.43-.1,2.62-.19,3.45-.26,1.75,4.32,3.49,8.65,5.24,12.97,0,1.67-1.26,3.02-2.81,3.02Z"/><rect class="cls-1" x="38.57" y="36.66" width="2.03" height="17.59" rx=".92" ry=".92" transform="translate(85.03 5.87) rotate(90)"/></g></svg>