<?xml version="1.0" encoding="UTF-8"?><svg id="Layer_2" xmlns="http://www.w3.org/2000/svg" width="28.01mm" height="19.23mm" viewBox="0 0 79.39 54.5"><defs><style>.cls-1{fill:#f47421;}</style></defs><g id="Layer_1-2"><path class="cls-1" d="m13.81,14.64c-.22-4.77.8-10.2,4.66-12.78C20.56.46,23.14.15,25.61.05c11.42-.48,22.96,2.8,32.57,9.24,3.02,2.02,5.9,4.41,7.88,7.53,3.22,5.06,3.79,11.59,7.11,16.59,2.68,4.02,7.29,7.93,5.98,12.63-1.08,3.86-5.53,5.28-9.32,6.02-11.69,2.29-23.94,3.95-35.32.32-4.6-1.47-8.94-3.77-13.57-5.13-3.67-1.07-7.5-1.54-11.3-1.37-2.17.09-4.46.37-6.41-.63C0,43.6-.87,38.76.89,35.47c2.75-5.16,8.09-3,11.24-6.02,3.96-3.8,1.92-9.65,1.68-14.81Z"/></g></svg>